<mxfile host="app.diagrams.net" modified="2022-06-30T21:23:31.169Z" agent="5.0 (Macintosh; Intel Mac OS X 10_15_7) AppleWebKit/537.36 (KHTML, like Gecko) Chrome/103.0.5060.53 Safari/537.36 Edg/103.0.1264.37" etag="k8ftvTppOgM409VT8KBq" version="20.0.4" type="github">
  <diagram id="WC_vAVpubCEw6jQJzw-5" name="Page-1">
    <mxGraphModel dx="866" dy="621" grid="1" gridSize="10" guides="1" tooltips="1" connect="1" arrows="1" fold="1" page="1" pageScale="1" pageWidth="850" pageHeight="1100" math="0" shadow="0">
      <root>
        <mxCell id="0" />
        <mxCell id="1" parent="0" />
        <mxCell id="iWGYxbqnK11PC3dcelOQ-8" value="" style="edgeStyle=orthogonalEdgeStyle;rounded=0;orthogonalLoop=1;jettySize=auto;html=1;" edge="1" parent="1" source="iWGYxbqnK11PC3dcelOQ-3" target="iWGYxbqnK11PC3dcelOQ-4">
          <mxGeometry relative="1" as="geometry" />
        </mxCell>
        <UserObject label="同意服務條款" link="https://www.zeczec.com/docs/terms_of_service" linkTarget="_blank" id="iWGYxbqnK11PC3dcelOQ-3">
          <mxCell style="rounded=1;whiteSpace=wrap;html=1;" vertex="1" parent="1">
            <mxGeometry x="360" y="40" width="120" height="60" as="geometry" />
          </mxCell>
        </UserObject>
        <mxCell id="iWGYxbqnK11PC3dcelOQ-9" value="" style="edgeStyle=orthogonalEdgeStyle;rounded=0;orthogonalLoop=1;jettySize=auto;html=1;" edge="1" parent="1" source="iWGYxbqnK11PC3dcelOQ-4" target="iWGYxbqnK11PC3dcelOQ-5">
          <mxGeometry relative="1" as="geometry" />
        </mxCell>
        <mxCell id="iWGYxbqnK11PC3dcelOQ-4" value="完成會員註冊" style="rounded=1;whiteSpace=wrap;html=1;" vertex="1" parent="1">
          <mxGeometry x="360" y="160" width="120" height="60" as="geometry" />
        </mxCell>
        <mxCell id="iWGYxbqnK11PC3dcelOQ-11" value="" style="edgeStyle=orthogonalEdgeStyle;rounded=0;orthogonalLoop=1;jettySize=auto;html=1;" edge="1" parent="1" source="iWGYxbqnK11PC3dcelOQ-5" target="iWGYxbqnK11PC3dcelOQ-6">
          <mxGeometry relative="1" as="geometry" />
        </mxCell>
        <mxCell id="iWGYxbqnK11PC3dcelOQ-5" value="信箱驗證" style="rounded=1;whiteSpace=wrap;html=1;" vertex="1" parent="1">
          <mxGeometry x="360" y="280" width="120" height="60" as="geometry" />
        </mxCell>
        <mxCell id="iWGYxbqnK11PC3dcelOQ-35" value="" style="edgeStyle=orthogonalEdgeStyle;rounded=0;orthogonalLoop=1;jettySize=auto;html=1;" edge="1" parent="1" source="iWGYxbqnK11PC3dcelOQ-6" target="iWGYxbqnK11PC3dcelOQ-7">
          <mxGeometry relative="1" as="geometry" />
        </mxCell>
        <mxCell id="iWGYxbqnK11PC3dcelOQ-6" value="填寫真實姓名" style="rounded=1;whiteSpace=wrap;html=1;" vertex="1" parent="1">
          <mxGeometry x="360" y="400" width="120" height="60" as="geometry" />
        </mxCell>
        <mxCell id="iWGYxbqnK11PC3dcelOQ-36" value="" style="edgeStyle=orthogonalEdgeStyle;rounded=0;orthogonalLoop=1;jettySize=auto;html=1;" edge="1" parent="1" source="iWGYxbqnK11PC3dcelOQ-7" target="iWGYxbqnK11PC3dcelOQ-12">
          <mxGeometry relative="1" as="geometry" />
        </mxCell>
        <mxCell id="iWGYxbqnK11PC3dcelOQ-7" value="選擇提案類型：&lt;br&gt;群眾集資 / 預購 / 訂閱" style="rounded=1;whiteSpace=wrap;html=1;" vertex="1" parent="1">
          <mxGeometry x="360" y="520" width="120" height="60" as="geometry" />
        </mxCell>
        <mxCell id="iWGYxbqnK11PC3dcelOQ-37" value="" style="edgeStyle=orthogonalEdgeStyle;rounded=0;orthogonalLoop=1;jettySize=auto;html=1;" edge="1" parent="1" source="iWGYxbqnK11PC3dcelOQ-12" target="iWGYxbqnK11PC3dcelOQ-13">
          <mxGeometry relative="1" as="geometry" />
        </mxCell>
        <mxCell id="iWGYxbqnK11PC3dcelOQ-12" value="送出提案" style="rounded=1;whiteSpace=wrap;html=1;" vertex="1" parent="1">
          <mxGeometry x="360" y="640" width="120" height="60" as="geometry" />
        </mxCell>
        <mxCell id="iWGYxbqnK11PC3dcelOQ-38" value="" style="edgeStyle=orthogonalEdgeStyle;rounded=0;orthogonalLoop=1;jettySize=auto;html=1;" edge="1" parent="1" source="iWGYxbqnK11PC3dcelOQ-13" target="iWGYxbqnK11PC3dcelOQ-15">
          <mxGeometry relative="1" as="geometry" />
        </mxCell>
        <mxCell id="iWGYxbqnK11PC3dcelOQ-39" value="" style="edgeStyle=orthogonalEdgeStyle;rounded=0;orthogonalLoop=1;jettySize=auto;html=1;" edge="1" parent="1" source="iWGYxbqnK11PC3dcelOQ-13" target="iWGYxbqnK11PC3dcelOQ-14">
          <mxGeometry relative="1" as="geometry" />
        </mxCell>
        <mxCell id="iWGYxbqnK11PC3dcelOQ-13" value="提案審核" style="rhombus;whiteSpace=wrap;html=1;" vertex="1" parent="1">
          <mxGeometry x="380" y="760" width="80" height="80" as="geometry" />
        </mxCell>
        <mxCell id="iWGYxbqnK11PC3dcelOQ-41" value="" style="edgeStyle=orthogonalEdgeStyle;rounded=0;orthogonalLoop=1;jettySize=auto;html=1;" edge="1" parent="1" source="iWGYxbqnK11PC3dcelOQ-14" target="iWGYxbqnK11PC3dcelOQ-16">
          <mxGeometry relative="1" as="geometry" />
        </mxCell>
        <mxCell id="iWGYxbqnK11PC3dcelOQ-14" value="審核通過" style="rounded=1;whiteSpace=wrap;html=1;" vertex="1" parent="1">
          <mxGeometry x="360" y="900" width="120" height="60" as="geometry" />
        </mxCell>
        <mxCell id="iWGYxbqnK11PC3dcelOQ-40" value="" style="edgeStyle=orthogonalEdgeStyle;rounded=0;orthogonalLoop=1;jettySize=auto;html=1;" edge="1" parent="1" source="iWGYxbqnK11PC3dcelOQ-15" target="iWGYxbqnK11PC3dcelOQ-28">
          <mxGeometry relative="1" as="geometry" />
        </mxCell>
        <mxCell id="iWGYxbqnK11PC3dcelOQ-15" value="審核未通過" style="rounded=1;whiteSpace=wrap;html=1;" vertex="1" parent="1">
          <mxGeometry x="210" y="770" width="120" height="60" as="geometry" />
        </mxCell>
        <mxCell id="iWGYxbqnK11PC3dcelOQ-16" value="提案通過通知信" style="rounded=1;whiteSpace=wrap;html=1;" vertex="1" parent="1">
          <mxGeometry x="550" y="900" width="120" height="60" as="geometry" />
        </mxCell>
        <mxCell id="iWGYxbqnK11PC3dcelOQ-18" value="提案團隊&lt;br&gt;輸入受款帳戶資訊" style="rounded=1;whiteSpace=wrap;html=1;" vertex="1" parent="1">
          <mxGeometry x="480" y="1020" width="120" height="60" as="geometry" />
        </mxCell>
        <mxCell id="iWGYxbqnK11PC3dcelOQ-19" value="提案團隊&lt;br&gt;增減調整專案內容" style="rounded=1;whiteSpace=wrap;html=1;" vertex="1" parent="1">
          <mxGeometry x="240" y="1020" width="120" height="60" as="geometry" />
        </mxCell>
        <mxCell id="iWGYxbqnK11PC3dcelOQ-20" value="" style="endArrow=none;html=1;rounded=0;entryX=0.5;entryY=1;entryDx=0;entryDy=0;" edge="1" parent="1" target="iWGYxbqnK11PC3dcelOQ-14">
          <mxGeometry width="50" height="50" relative="1" as="geometry">
            <mxPoint x="420" y="1000" as="sourcePoint" />
            <mxPoint x="430" y="970" as="targetPoint" />
          </mxGeometry>
        </mxCell>
        <mxCell id="iWGYxbqnK11PC3dcelOQ-21" value="" style="endArrow=none;html=1;rounded=0;" edge="1" parent="1">
          <mxGeometry width="50" height="50" relative="1" as="geometry">
            <mxPoint x="420" y="1000" as="sourcePoint" />
            <mxPoint x="540" y="1000" as="targetPoint" />
          </mxGeometry>
        </mxCell>
        <mxCell id="iWGYxbqnK11PC3dcelOQ-22" value="" style="endArrow=none;html=1;rounded=0;" edge="1" parent="1">
          <mxGeometry width="50" height="50" relative="1" as="geometry">
            <mxPoint x="420" y="1000" as="sourcePoint" />
            <mxPoint x="300" y="1000" as="targetPoint" />
          </mxGeometry>
        </mxCell>
        <mxCell id="iWGYxbqnK11PC3dcelOQ-23" value="" style="endArrow=classic;html=1;rounded=0;entryX=0.5;entryY=0;entryDx=0;entryDy=0;" edge="1" parent="1" target="iWGYxbqnK11PC3dcelOQ-18">
          <mxGeometry width="50" height="50" relative="1" as="geometry">
            <mxPoint x="540" y="1000" as="sourcePoint" />
            <mxPoint x="460" y="950" as="targetPoint" />
          </mxGeometry>
        </mxCell>
        <mxCell id="iWGYxbqnK11PC3dcelOQ-24" value="" style="endArrow=classic;html=1;rounded=0;entryX=0.5;entryY=0;entryDx=0;entryDy=0;" edge="1" parent="1" target="iWGYxbqnK11PC3dcelOQ-19">
          <mxGeometry width="50" height="50" relative="1" as="geometry">
            <mxPoint x="300" y="1000" as="sourcePoint" />
            <mxPoint x="460" y="950" as="targetPoint" />
          </mxGeometry>
        </mxCell>
        <mxCell id="iWGYxbqnK11PC3dcelOQ-26" value="專案上線" style="rounded=0;whiteSpace=wrap;html=1;gradientColor=#ffffff;shadow=1;" vertex="1" parent="1">
          <mxGeometry x="360" y="1140" width="120" height="60" as="geometry" />
        </mxCell>
        <mxCell id="iWGYxbqnK11PC3dcelOQ-28" value="提案未過通知信" style="rounded=0;whiteSpace=wrap;html=1;gradientColor=#ffffff;shadow=1;" vertex="1" parent="1">
          <mxGeometry x="40" y="770" width="120" height="60" as="geometry" />
        </mxCell>
        <mxCell id="iWGYxbqnK11PC3dcelOQ-29" value="" style="endArrow=none;html=1;rounded=0;" edge="1" parent="1">
          <mxGeometry width="50" height="50" relative="1" as="geometry">
            <mxPoint x="420" y="1110" as="sourcePoint" />
            <mxPoint x="300" y="1110" as="targetPoint" />
          </mxGeometry>
        </mxCell>
        <mxCell id="iWGYxbqnK11PC3dcelOQ-30" value="" style="endArrow=none;html=1;rounded=0;" edge="1" parent="1">
          <mxGeometry width="50" height="50" relative="1" as="geometry">
            <mxPoint x="540" y="1110" as="sourcePoint" />
            <mxPoint x="420" y="1110" as="targetPoint" />
          </mxGeometry>
        </mxCell>
        <mxCell id="iWGYxbqnK11PC3dcelOQ-32" value="" style="endArrow=none;html=1;rounded=0;exitX=0.5;exitY=1;exitDx=0;exitDy=0;" edge="1" parent="1" source="iWGYxbqnK11PC3dcelOQ-19">
          <mxGeometry width="50" height="50" relative="1" as="geometry">
            <mxPoint x="410" y="1060" as="sourcePoint" />
            <mxPoint x="300" y="1110" as="targetPoint" />
          </mxGeometry>
        </mxCell>
        <mxCell id="iWGYxbqnK11PC3dcelOQ-33" value="" style="endArrow=none;html=1;rounded=0;exitX=0.5;exitY=1;exitDx=0;exitDy=0;" edge="1" parent="1" source="iWGYxbqnK11PC3dcelOQ-18">
          <mxGeometry width="50" height="50" relative="1" as="geometry">
            <mxPoint x="539" y="1081" as="sourcePoint" />
            <mxPoint x="540" y="1110" as="targetPoint" />
          </mxGeometry>
        </mxCell>
        <mxCell id="iWGYxbqnK11PC3dcelOQ-34" value="" style="endArrow=classic;html=1;rounded=0;entryX=0.5;entryY=0;entryDx=0;entryDy=0;" edge="1" parent="1" target="iWGYxbqnK11PC3dcelOQ-26">
          <mxGeometry width="50" height="50" relative="1" as="geometry">
            <mxPoint x="420" y="1110" as="sourcePoint" />
            <mxPoint x="460" y="1010" as="targetPoint" />
          </mxGeometry>
        </mxCell>
      </root>
    </mxGraphModel>
  </diagram>
</mxfile>
